<svg width="21" height="20" viewBox="0 0 21 20" fill="none" xmlns="http://www.w3.org/2000/svg">
<path d="M9.02074 16.4718C4.47598 16.4718 0.778564 12.7772 0.778564 8.23588C0.778564 3.69459 4.47598 0 9.02074 0C13.5655 0 17.2629 3.69459 17.2629 8.23588C17.2629 12.7772 13.5655 16.4718 9.02074 16.4718ZM9.02074 1.5613C5.33754 1.5613 2.34106 4.5555 2.34106 8.23588C2.34106 11.9163 5.33754 14.9105 9.02074 14.9105C12.7039 14.9105 15.7004 11.9163 15.7004 8.23588C15.7004 4.5555 12.7039 1.5613 9.02074 1.5613ZM20.5498 19.7713C20.8548 19.4665 20.8548 18.9722 20.5498 18.6673L17.0537 15.1739C16.7485 14.869 16.2539 14.869 15.9488 15.1739C15.6437 15.4788 15.6437 15.9731 15.9488 16.2779L19.4449 19.7713C19.5974 19.9238 19.7974 20 19.9973 20C20.1973 20 20.3972 19.9238 20.5498 19.7713Z" fill="#31352B"/>
</svg>
